<svg xmlns="http://www.w3.org/2000/svg" viewBox="0 0 512 512" style="height: 512px; width: 512px;"><g class="" transform="translate(0,0)" style="touch-action: none;"><g><path d="M238 20C229.4 21.31 221.5 25.4 217.3 29.7L243.4 188.4L225.8 194L152.8 46C146.9 45.2 138.5 46.61 130.6 50.81C122.5 55.11 116.2 61.81 113.4 68.2L182.5 211.1L167.3 221.6L72.75 121.4C66.95 122.6 59.65 126.9 53.65 133.5C47.45 140.5 43.45 149.3 42.65 156.3L138.7 259.9C208.6 228.5 279.1 205.7 349.6 183.8L360 136.6C351.5 137.2 343.4 136 335.9 133.4C328.7 130.9 322 127.2 315.7 122.6L304 175.6L285.7 175.1L261.5 23.71C253.3 19.69 246.3 19.21 238 20Z" class="" fill="#8b572a" fill-opacity="1" stroke="#000000" stroke-opacity="1" stroke-width="4"></path><path d="M332.4 31.13L316.3 99.47C324.7 107.5 333.2 113.4 341.8 116.4C350.4 119.4 359.3 119.7 369.6 116.4L386.5 46.67L386.5 46.56C382.8 31.98 344.1 24.79 332.4 31.13Z" class="" fill="#9b9b9b" fill-opacity="1" stroke="#000000" stroke-opacity="1" stroke-width="4"></path><path d="M438.2 196.1C432.5 196.2 426.1 197.5 419.1 200C400.1 206.6 377.5 221.3 354.5 235.5L354 235.1C294.3 269.4 235.9 304.3 184.2 345.5L184.2 347.6C205.8 350.5 235.8 358.8 264.5 368.2C287.5 375.8 309.1 383.8 324.4 390.8C322.1 368.8 321.8 348.3 322.8 329.9C314.1 334.1 305.8 337.5 297.5 339.8C279.4 344.9 261 344.5 244.8 334.7L254.5 318.7C265.7 325.5 277.6 326 292.5 321.8C307.4 317.6 324.8 308.3 343.9 296.2C379.8 273.5 421.6 241.3 469.4 218C463.5 206.7 457.1 200.8 450.3 198.1C446.7 196.7 442.6 196 438.2 196.1Z" class="" fill="#8b572a" fill-opacity="1" stroke="#000000" stroke-opacity="1" stroke-width="4"></path><path d="M345.1 204C301.8 217.6 258.6 231.6 215.8 247.7C232.1 252 248.6 258.7 261.2 269.4C287.4 252.9 314.3 237.1 341.3 221.6C342.8 215.6 343.8 210 345.1 204Z" class="" fill="#9b9b9b" fill-opacity="1" stroke="#000000" stroke-opacity="1" stroke-width="4"></path><path d="M184.4 260C173.4 264.5 162.5 269.1 151.6 273.9L167.3 290.8L167.5 290.9C175.6 299.3 180.3 310.5 182.6 323.9C202.7 308.4 223.6 293.8 245.1 279.8C229 269.1 203.8 262.6 184.4 260Z" class="" fill="#9b9b9b" fill-opacity="1" stroke="#000000" stroke-opacity="1" stroke-width="4"></path><path d="M131.2 311.1C126.5 311 118.6 313.1 110.2 316.8C101.1 320.9 91.22 326.8 82.17 332.8C77.43 335.9 72.99 339.1 68.92 342C81.86 342.6 95.5 343.7 109.3 346.9C128.4 351.4 147.2 360.3 160.3 376.8C168.8 359.6 168.5 347.3 161.5 335.8C152 322.9 138.8 311.6 132.1 311.1Z" class="" fill="#9b9b9b" fill-opacity="1" stroke="#000000" stroke-opacity="1" stroke-width="4"></path><path d="M183.3 365.7C182.2 379.1 179.9 393.6 177.7 405.2C238.9 414.7 287.8 439.3 337.9 460.5C333.2 443.8 329.7 427.7 327.3 412.2C315.7 406 287.9 394.9 258.9 385.3C231.5 376.3 202.3 368.5 183.3 365.7Z" class="" fill="#9b9b9b" fill-opacity="1" stroke="#000000" stroke-opacity="1" stroke-width="4"></path><path d="M162.1 395.4C144.1 404.7 122.7 412.5 92.56 413.2C85.59 430.9 78.55 450.3 60.92 468.8C83.52 469.5 98.87 465.7 112.3 457.8C128.8 448.1 139.5 430.8 159.2 406.4Z" class="" fill="#9b9b9b" fill-opacity="1" stroke="#000000" stroke-opacity="1" stroke-width="4"></path><path d="M174 422.8C170.5 438.4 166.1 454.9 161.2 472.1C181.9 458.9 206.1 445 233.1 437.3C214.4 431.1 194.9 426 174 422.8Z" class="" fill="#9b9b9b" fill-opacity="1" stroke="#000000" stroke-opacity="1" stroke-width="4"></path><path d="M266.1 449.5C227.7 452.4 192.5 473.3 163 492.4L348.3 492.4C347.1 489.2 346 486 344.9 482.8C318 472 292.4 460.1 266.1 449.5Z" class="selected" fill="#9b9b9b" fill-opacity="1" stroke="#000000" stroke-opacity="1" stroke-width="4"></path></g></g></svg>